<?xml version="1.0" encoding="utf-8"?>
<!-- Generator: Adobe Illustrator 20.0.0, SVG Export Plug-In . SVG Version: 6.00 Build 0)  -->
<svg version="1.1" id="Ebene_1" xmlns="http://www.w3.org/2000/svg" x="0px" y="0px"
     viewBox="0 0 56.247 29.624" style="enable-background:new 0 0 56.247 29.624;" xml:space="preserve">
<g>
	<polygon points="28.271,14.497 22.928,15.154 23.516,15.326 22.98,15.582 28.324,14.926 33.298,14.314 33.247,13.887 	"/>
	<polygon points="22.928,15.154 22.98,15.582 25.299,15.079 	"/>
	<polygon points="0,6.559 1.268,16.888 1.626,17.226 1.867,16.814 0.673,7.084 52.889,0.673 54.083,10.403 54.431,10.743 
		54.683,10.33 53.415,0 	"/>
	<polygon points="54.083,10.403 55.573,22.54 3.358,28.951 1.867,16.814 1.516,16.492 1.268,16.888 2.832,29.624 56.247,23.066 
		54.683,10.33 54.314,9.793 	"/>
</g>
<g>
	<g>
		<path d="M9.665,14.224C8.3,14.392,7.748,13.538,7.63,12.566c-0.152-1.238,0.389-2.184,1.696-2.345
			c0.278-0.034,0.577-0.036,0.84,0.002l0.003,0.692c-0.264-0.044-0.534-0.052-0.801-0.019c-0.729,0.089-1.02,0.683-0.927,1.44
			c0.104,0.85,0.515,1.281,1.302,1.185c0.237-0.029,0.547-0.137,0.738-0.255l0.169,0.661C10.373,14.066,10.029,14.179,9.665,14.224z
			"/>
		<path d="M13.815,11.369c0.023,0.095,0.042,0.198,0.056,0.308c0.115,0.937-0.38,1.397-0.89,1.459
			c-0.699,0.086-1.089-0.412-1.191-1.239c-0.012-0.098-0.015-0.189-0.014-0.278l-0.396-0.528l-0.398,0.626
			c-0.002,0.117-0.002,0.234,0.013,0.36c0.148,1.208,0.825,1.894,2.017,1.748c1.058-0.129,1.813-1.015,1.654-2.304
			c-0.01-0.09-0.032-0.167-0.048-0.25l-0.565-0.597L13.815,11.369z"/>
		<path d="M12.665,10.463c0.586-0.072,0.987,0.246,1.15,0.906l0.482,0.565l0.322-0.664c-0.233-1.146-0.997-1.612-1.967-1.493
			c-0.946,0.116-1.655,0.849-1.668,1.939l0.492,0.693l0.301-0.791C11.785,10.916,12.187,10.521,12.665,10.463z"/>
		<path d="M18.059,13.141l-1.387-1.831c-0.209-0.274-0.378-0.547-0.525-0.787c0.064,0.332,0.151,0.944,0.209,1.413l0.17,1.394
			l-0.729,0.089l-0.479-3.903l0.978-0.12l1.316,1.728c0.216,0.279,0.412,0.584,0.593,0.861c-0.077-0.39-0.174-1.083-0.232-1.562
			l-0.149-1.215l0.729-0.089l0.479,3.904L18.059,13.141z"/>
		<polygon points="20.583,9.514 20.706,10.521 21.967,10.365 22.043,10.984 20.782,11.139 20.984,12.782 20.232,12.874 
			19.753,8.971 21.841,8.714 21.919,9.35 		"/>
		<polygon points="23.476,8.513 22.724,8.606 22.965,10.564 23.409,11.067 23.717,10.473 		"/>
		<polygon points="22.965,10.564 23.204,12.509 23.956,12.417 23.717,10.473 23.278,10.003 		"/>
		<path d="M27.221,9.485c0.06,0.153,0.101,0.327,0.126,0.525c0.113,0.925-0.368,1.407-1.102,1.497
			c-0.15,0.018-0.308,0.026-0.413,0.021l-0.227-1.845l-0.45-0.549l-0.302,0.642l0.305,2.487c0.331-0.029,0.686-0.055,1.091-0.104
			c1.273-0.157,2.066-0.965,1.901-2.306c-0.021-0.171-0.053-0.328-0.094-0.47l-0.497-0.469L27.221,9.485z"/>
		<path d="M25.507,8.898c0.12-0.026,0.281-0.052,0.455-0.073c0.68-0.083,1.068,0.166,1.259,0.661l0.47,0.554l0.365-0.656
			c-0.29-1.002-1.061-1.325-2.119-1.195c-0.48,0.059-0.952,0.135-1.257,0.184l0.173,1.405l0.462,0.555l0.289-0.648L25.507,8.898z"/>
		<polygon points="29.303,11.76 28.825,7.857 30.946,7.596 31.024,8.226 29.654,8.395 29.771,9.354 31.073,9.195 31.148,9.808 
			29.846,9.967 29.976,11.025 31.347,10.858 31.426,11.499 		"/>
		<path d="M34.704,11.097l-1.388-1.832c-0.209-0.273-0.377-0.546-0.525-0.787C32.856,8.812,32.942,9.423,33,9.891l0.171,1.394
			l-0.729,0.09l-0.479-3.904l0.976-0.12l1.316,1.729c0.216,0.279,0.412,0.583,0.593,0.861c-0.077-0.39-0.173-1.083-0.232-1.562
			l-0.149-1.214l0.729-0.089l0.479,3.903L34.704,11.097z"/>
		<polygon points="37.784,7.408 38.184,10.67 37.432,10.762 37.032,7.5 36.02,7.625 35.94,6.983 38.716,6.642 38.795,7.284 		"/>
		<polygon points="40.186,6.462 39.434,6.554 39.658,8.379 40.125,9.076 40.41,8.287 		"/>
		<polygon points="39.658,8.379 39.912,10.458 40.665,10.365 40.41,8.287 39.953,7.677 		"/>
		<polygon points="43.869,7.638 43.317,7.081 43.066,7.736 43.5,8.602 42.413,8.736 42.623,7.791 42.384,7.229 41.885,7.881 
			41.363,10.279 42.121,10.187 42.294,9.354 43.77,9.174 44.139,9.939 44.972,9.836 		"/>
		<path d="M42.643,7.698c0.048-0.235,0.083-0.468,0.105-0.676l0.005-0.001c0.074,0.214,0.155,0.398,0.256,0.602l0.057,0.113
			l0.679,0.623l0.124-0.722l-0.77-1.534l-0.85,0.104l-0.363,1.673l0.31,0.581l0.427-0.671L42.643,7.698z"/>
		<polygon points="45.67,9.75 45.191,5.847 45.944,5.754 46.342,8.999 47.608,8.843 47.689,9.502 		"/>
	</g>
	<g>
		<path d="M12.296,23.632l-0.595,0.072l-1.885-3.73l0.59-0.073l1.181,2.403c0.103,0.216,0.238,0.499,0.353,0.778l0.006,0
			c0.042-0.286,0.09-0.557,0.168-0.883l0.593-2.58l0.544-0.066L12.296,23.632z"/>
		<path d="M14.585,23.351l-0.479-3.903l2.007-0.247l0.054,0.44l-1.475,0.181l0.152,1.238l1.406-0.172l0.052,0.427l-1.406,0.173
			l0.167,1.353l1.474-0.181l0.055,0.446L14.585,23.351z"/>
		<path d="M18.66,21.013c0.627-0.121,1.063-0.518,1.06-1.104l-0.329-0.455l-0.221,0.522c0.011,0.381-0.272,0.673-0.8,0.737
			c-0.156,0.02-0.272,0.028-0.332,0.03l-0.076-0.619l-0.344-0.603l-0.188,0.669l0.34,2.769l0.532-0.065l-0.215-1.753l0.023-0.003
			l1.539,1.59l0.677-0.083l-1.276-1.258C18.932,21.272,18.792,21.137,18.66,21.013z"/>
		<path d="M17.875,19.412c0.104-0.018,0.219-0.038,0.353-0.055c0.566-0.069,0.884,0.079,0.941,0.548
			c0.003,0.024,0.001,0.047,0.001,0.071l0.201,0.478l0.349-0.545c0-0.046,0.003-0.092-0.003-0.141
			c-0.092-0.746-0.68-0.949-1.45-0.854c-0.428,0.052-0.71,0.093-0.974,0.143l0.139,1.135l0.322,0.585l0.21-0.651L17.875,19.412z"/>
		<path d="M21.92,18.94l0.425,3.458l-0.533,0.065l-0.424-3.458l-1.122,0.138l-0.054-0.446l2.781-0.341l0.055,0.445L21.92,18.94z"/>
		<path d="M25.181,20.212c0.617-0.119,1.05-0.505,1.061-1.077l-0.329-0.561l-0.22,0.628c-0.003,0.368-0.285,0.647-0.801,0.71
			c-0.157,0.019-0.272,0.028-0.332,0.029l-0.073-0.592l-0.311-0.634l-0.221,0.699l0.337,2.743l0.533-0.066l-0.215-1.752l0.023-0.003
			l1.54,1.59l0.677-0.083l-1.275-1.258C25.454,20.472,25.314,20.337,25.181,20.212z"/>
		<path d="M24.397,18.612c0.104-0.019,0.219-0.039,0.352-0.055c0.567-0.069,0.885,0.08,0.942,0.547
			c0.004,0.035,0.002,0.067,0.002,0.099l0.251,0.458l0.297-0.525c0.001-0.055,0.003-0.11-0.004-0.168
			c-0.092-0.746-0.681-0.949-1.45-0.855c-0.428,0.052-0.71,0.093-0.974,0.143l0.142,1.161l0.322,0.613l0.21-0.678L24.397,18.612z"/>
		<path d="M28.475,18.88c0.05-0.205,0.083-0.415,0.106-0.612l0.012-0.002c0.071,0.197,0.146,0.375,0.245,0.563l0.265,0.518
			l0.493,0.402l0.079-0.472l-0.841-1.639l-0.59,0.072l-0.415,1.793l0.165,0.472l0.353-0.536L28.475,18.88z"/>
		<polygon points="29.674,19.277 29.187,18.801 29.103,19.348 29.518,20.161 28.142,20.33 28.346,19.441 28.157,18.927 
			27.828,19.504 27.299,21.79 27.843,21.723 28.055,20.769 29.714,20.565 30.151,21.439 30.746,21.366 		"/>
		<path d="M32.869,21.164c-1.22,0.15-1.546-0.497-1.632-1.19l-0.317-2.591l0.532-0.065l0.313,2.55
			c0.066,0.538,0.298,0.95,1.084,0.853c0.683-0.083,0.966-0.406,0.87-1.192l-0.301-2.453l0.521-0.063l0.296,2.412
			C34.36,20.447,33.887,21.039,32.869,21.164z"/>
		<path d="M35.781,20.748l-0.479-3.903l0.532-0.066l0.424,3.448l1.399-0.172l0.056,0.457L35.781,20.748z"/>
		<polygon points="38.29,18.484 38.526,20.411 39.059,20.345 38.823,18.419 38.499,17.977 		"/>
		<polygon points="38.58,16.441 38.047,16.507 38.29,18.484 38.634,19.081 38.823,18.419 		"/>
		<path d="M41.881,20.046c-1.255,0.154-1.873-0.58-2.008-1.679c-0.146-1.191,0.334-2.16,1.652-2.322
			c0.301-0.037,0.613-0.028,0.899,0.007l0.001,0.493c-0.312-0.056-0.606-0.066-0.902-0.03c-0.891,0.109-1.188,0.839-1.083,1.695
			c0.117,0.96,0.602,1.458,1.509,1.346c0.283-0.035,0.632-0.16,0.85-0.304l0.115,0.467C42.635,19.878,42.274,19.998,41.881,20.046z"
			/>
		<path d="M46.564,19.424l-0.221-1.798l-1.99,0.244l0.222,1.799l-0.533,0.065l-0.479-3.903l0.532-0.065l0.204,1.654l1.989-0.244
			l-0.203-1.654l0.533-0.066l0.479,3.904L46.564,19.424z"/>
	</g>
</g>
</svg>
