<?xml version="1.0" encoding="UTF-8" standalone="no"?>
<!-- Generator: Adobe Illustrator 20.0.0, SVG Export Plug-In . SVG Version: 6.00 Build 0)  -->

<svg
  xmlns:dc="http://purl.org/dc/elements/1.1/"
  xmlns:cc="http://creativecommons.org/ns#"
  xmlns:rdf="http://www.w3.org/1999/02/22-rdf-syntax-ns#"
  xmlns="http://www.w3.org/2000/svg"
  xmlns:sodipodi="http://sodipodi.sourceforge.net/DTD/sodipodi-0.dtd"
  xmlns:inkscape="http://www.inkscape.org/namespaces/inkscape"
  version="1.1"
  id="Ebene_1"
  x="0px"
  y="0px"
  viewBox="0 0 56.246 29.625"
  style="enable-background:new 0 0 56.246 29.625;"
  xml:space="preserve"
  inkscape:version="0.91 r13725"
  sodipodi:docname="VWAG_Internal_scaled.svg"><metadata
   id="metadata61"><rdf:RDF><cc:Work
       rdf:about=""><dc:format>image/svg+xml</dc:format><dc:type
         rdf:resource="http://purl.org/dc/dcmitype/StillImage" /><dc:title /></cc:Work></rdf:RDF></metadata><defs
   id="defs59">
	
	
	
	
</defs><sodipodi:namedview
   pagecolor="#ffffff"
   bordercolor="#666666"
   borderopacity="1"
   objecttolerance="10"
   gridtolerance="10"
   guidetolerance="10"
   inkscape:pageopacity="0"
   inkscape:pageshadow="2"
   inkscape:window-width="1920"
   inkscape:window-height="1137"
   id="namedview57"
   showgrid="false"
   inkscape:zoom="17.34892"
   inkscape:cx="17.828417"
   inkscape:cy="20.133956"
   inkscape:window-x="1912"
   inkscape:window-y="-8"
   inkscape:window-maximized="1"
   inkscape:current-layer="Ebene_1" />
<g
   id="g3363"
   transform="matrix(1.0396287,0,0,1.2281841,-1.085651,-3.3799644)"><polygon
     transform="matrix(0.99254615,0.12186934,-0.12186934,0.99254615,2.0148142,-3.3169214)"
     points="53.414,0 0,6.559 1.268,16.889 1.626,17.226 1.867,16.814 0.672,7.085 52.888,0.674 54.083,10.404 54.43,10.744 54.683,10.33 "
     id="polygon9" /><polygon
     transform="matrix(0.99254615,0.12186934,-0.12186934,0.99254615,2.0148142,-3.3169214)"
     points="54.313,9.793 54.083,10.404 55.572,22.541 3.357,28.952 1.867,16.814 1.515,16.493 1.268,16.889 2.831,29.625 56.246,23.066 54.683,10.33 "
     id="polygon11" /></g>
<g
   id="g3367"
   transform="matrix(1.3,0,0,1.3,-8.4368368,-4.4414105)"><polygon
     transform="matrix(0.99254615,0.12186934,-0.12186934,0.99254615,2.0148142,-3.3169214)"
     points="28.323,14.927 33.298,14.315 33.247,13.888 28.271,14.498 22.927,15.154 23.517,15.327 22.98,15.582 "
     id="polygon5" /><polygon
     transform="matrix(0.99254615,0.12186934,-0.12186934,0.99254615,2.0148142,-3.3169214)"
     points="22.98,15.582 25.299,15.08 22.927,15.154 "
     id="polygon7" /><g
     transform="matrix(0.99254615,0.12186934,-0.12186934,0.99254615,2.0148142,-3.3169214)"
     id="g13">
	<g
   id="g15">
		<polygon
   id="polygon17"
   points="14.3,11.45 14.761,12.092 15.051,11.357 14.833,9.575 14.081,9.667 " />
		<polygon
   id="polygon19"
   points="15.311,13.479 15.051,11.357 14.504,10.519 14.3,11.45 14.561,13.571 " />
		<path
   inkscape:connector-curvature="0"
   id="path21"
   d="m 18.776,13.053 -1.388,-1.832 c -0.21,-0.273 -0.378,-0.546 -0.525,-0.787 0.065,0.333 0.151,0.944 0.208,1.412 l 0.171,1.394 -0.728,0.09 -0.479,-3.904 0.978,-0.12 1.316,1.728 c 0.215,0.279 0.412,0.583 0.592,0.86 -0.077,-0.39 -0.173,-1.082 -0.233,-1.562 l -0.149,-1.212 0.729,-0.089 0.479,3.903 -0.971,0.119 z" />
		<polygon
   id="polygon23"
   points="21.504,12.718 21.104,9.457 20.091,9.581 20.013,8.939 22.789,8.598 22.868,9.24 21.855,9.364 22.256,12.626 " />
		<polygon
   id="polygon25"
   points="25.633,8.248 25.71,8.879 24.34,9.047 24.458,10.008 25.759,9.848 25.834,10.461 24.533,10.621 24.662,11.679 26.034,11.51 26.112,12.152 23.99,12.413 23.511,8.509 " />
		<path
   inkscape:connector-curvature="0"
   id="path27"
   d="m 27.47,8.64 c 0.074,-0.021 0.183,-0.04 0.293,-0.054 0.474,-0.058 0.728,0.099 0.774,0.475 0.013,0.103 0,0.197 -0.033,0.282 L 28.827,9.778 29.3,9.245 C 29.323,9.132 29.33,9.014 29.315,8.889 29.217,8.091 28.625,7.858 27.763,7.964 27.312,8.02 26.949,8.07 26.644,8.125 l 0.175,1.424 0.482,0.653 0.27,-0.745 L 27.47,8.64 Z" />
		<path
   inkscape:connector-curvature="0"
   id="path29"
   d="M 28.454,10.098 C 28.908,9.969 29.219,9.654 29.3,9.245 L 28.878,8.766 28.505,9.343 c -0.082,0.214 -0.3,0.363 -0.623,0.403 -0.115,0.014 -0.22,0.021 -0.273,0.022 l -0.038,-0.311 -0.448,-0.476 -0.304,0.568 0.304,2.479 0.752,-0.093 -0.198,-1.613 0.029,-0.004 1.286,1.481 0.931,-0.114 -1.099,-1.198 c -0.114,-0.121 -0.242,-0.258 -0.37,-0.389 z" />
		<path
   inkscape:connector-curvature="0"
   id="path31"
   d="M 32.986,11.309 31.599,9.477 C 31.388,9.204 31.221,8.931 31.074,8.691 c 0.064,0.332 0.152,0.944 0.21,1.413 l 0.171,1.394 -0.729,0.089 -0.479,-3.904 0.978,-0.12 1.316,1.729 c 0.216,0.278 0.412,0.583 0.592,0.861 C 33.055,9.763 32.959,9.07 32.9,8.591 l -0.15,-1.217 0.729,-0.089 0.479,3.903 -0.972,0.121 z" />
		<path
   inkscape:connector-curvature="0"
   id="path33"
   d="M 35.937,8.521 C 35.984,8.287 36.02,8.053 36.042,7.845 l 0.006,-10e-4 c 0.073,0.214 0.154,0.398 0.254,0.602 l 0.163,0.323 0.551,0.463 0.252,-0.562 -0.875,-1.744 -0.85,0.104 -0.414,1.902 0.291,0.495 0.446,-0.585 0.071,-0.321 z" />
		<polygon
   id="polygon35"
   points="36.465,8.77 36.792,9.427 35.706,9.559 35.865,8.844 35.534,8.311 35.129,8.934 34.657,11.103 35.414,11.01 35.588,10.179 37.062,9.998 37.433,10.763 38.265,10.66 37.268,8.671 36.703,8.168 " />
		<polygon
   id="polygon37"
   points="39.237,6.579 39.635,9.823 40.901,9.667 40.982,10.327 38.964,10.574 38.484,6.67 " />
	</g>
	<g
   id="g39">
		<polygon
   id="polygon41"
   points="19.044,20.729 19.397,21.397 19.577,20.663 19.349,18.804 18.816,18.869 " />
		<polygon
   id="polygon43"
   points="19.827,22.708 19.577,20.663 19.255,20.241 19.044,20.729 19.296,22.773 " />
		<path
   inkscape:connector-curvature="0"
   id="path45"
   d="m 23.615,22.242 -1.783,-2.235 c -0.213,-0.261 -0.385,-0.51 -0.544,-0.755 0.074,0.414 0.207,1.349 0.283,1.968 l 0.154,1.254 -0.52,0.064 -0.48,-3.904 0.7,-0.086 1.739,2.164 c 0.209,0.262 0.406,0.538 0.585,0.797 -0.082,-0.478 -0.217,-1.435 -0.296,-2.083 l -0.137,-1.111 0.515,-0.063 0.479,3.903 -0.695,0.087 z" />
		<polygon
   id="polygon47"
   points="26.297,21.913 25.872,18.455 24.751,18.592 24.696,18.147 27.478,17.805 27.532,18.251 26.405,18.389 26.83,21.848 " />
		<polygon
   id="polygon49"
   points="30.299,17.459 30.353,17.898 28.878,18.08 29.03,19.318 30.435,19.145 30.488,19.572 29.082,19.745 29.249,21.099 30.723,20.917 30.777,21.363 28.771,21.609 28.292,17.705 " />
		<path
   inkscape:connector-curvature="0"
   id="path51"
   d="m 32.062,17.671 c 0.104,-0.019 0.219,-0.039 0.351,-0.055 0.567,-0.069 0.884,0.079 0.943,0.548 0.01,0.093 10e-4,0.182 -0.021,0.265 l 0.145,0.331 0.41,-0.399 c 0.018,-0.105 0.026,-0.215 0.012,-0.334 -0.092,-0.745 -0.68,-0.949 -1.449,-0.854 -0.429,0.053 -0.71,0.093 -0.974,0.143 l 0.162,1.322 0.271,0.316 0.261,-0.381 -0.111,-0.902 z" />
		<path
   inkscape:connector-curvature="0"
   id="path53"
   d="m 32.845,19.271 c 0.555,-0.106 0.96,-0.432 1.044,-0.911 l -0.277,-0.347 -0.277,0.415 c -0.076,0.284 -0.344,0.49 -0.779,0.544 C 32.4,18.991 32.284,19 32.225,19.001 l -0.053,-0.43 -0.319,-0.436 -0.213,0.501 0.317,2.581 0.532,-0.065 -0.215,-1.752 0.022,-0.003 1.54,1.589 0.677,-0.083 -1.276,-1.259 c -0.119,-0.112 -0.259,-0.248 -0.392,-0.373 z" />
		<path
   inkscape:connector-curvature="0"
   id="path55"
   d="m 37.918,20.486 -1.783,-2.235 c -0.214,-0.261 -0.385,-0.51 -0.544,-0.755 0.074,0.414 0.207,1.349 0.282,1.968 l 0.154,1.255 -0.521,0.063 -0.479,-3.903 0.699,-0.087 1.74,2.164 c 0.208,0.263 0.406,0.538 0.585,0.797 -0.083,-0.477 -0.217,-1.435 -0.296,-2.083 l -0.137,-1.111 0.515,-0.063 0.479,3.903 -0.694,0.087 z" />
	</g>
</g></g>
</svg>
